<svg width="1440" height="1024" viewBox="0 0 1440 1024" fill="none" xmlns="http://www.w3.org/2000/svg">
<g opacity="0.15">
<line x1="0" y1="32" x2="1440" y2="32" stroke="#9333EA" stroke-width="0.5"/>
<line x1="0" y1="96" x2="1440" y2="96" stroke="#9333EA" stroke-width="0.5"/>
<line x1="0" y1="160" x2="1440" y2="160" stroke="#9333EA" stroke-width="0.5"/>
<line x1="0" y1="224" x2="1440" y2="224" stroke="#9333EA" stroke-width="0.5"/>
<line x1="0" y1="288" x2="1440" y2="288" stroke="#9333EA" stroke-width="0.5"/>
<line x1="0" y1="352" x2="1440" y2="352" stroke="#9333EA" stroke-width="0.5"/>
<line x1="0" y1="416" x2="1440" y2="416" stroke="#9333EA" stroke-width="0.5"/>
<line x1="0" y1="480" x2="1440" y2="480" stroke="#9333EA" stroke-width="0.5"/>
<line x1="0" y1="544" x2="1440" y2="544" stroke="#9333EA" stroke-width="0.5"/>
<line x1="0" y1="608" x2="1440" y2="608" stroke="#9333EA" stroke-width="0.5"/>
<line x1="0" y1="672" x2="1440" y2="672" stroke="#9333EA" stroke-width="0.5"/>
<line x1="0" y1="736" x2="1440" y2="736" stroke="#9333EA" stroke-width="0.5"/>
<line x1="0" y1="800" x2="1440" y2="800" stroke="#9333EA" stroke-width="0.5"/>
<line x1="0" y1="864" x2="1440" y2="864" stroke="#9333EA" stroke-width="0.5"/>
<line x1="0" y1="928" x2="1440" y2="928" stroke="#9333EA" stroke-width="0.5"/>
<line x1="0" y1="992" x2="1440" y2="992" stroke="#9333EA" stroke-width="0.5"/>
<line x1="32" y1="1024" x2="32" y2="0" stroke="#06B6D4" stroke-width="0.5"/>
<line x1="96" y1="1024" x2="96" y2="0" stroke="#06B6D4" stroke-width="0.5"/>
<line x1="160" y1="1024" x2="160" y2="0" stroke="#06B6D4" stroke-width="0.5"/>
<line x1="224" y1="1024" x2="224" y2="0" stroke="#06B6D4" stroke-width="0.5"/>
<line x1="288" y1="1024" x2="288" y2="0" stroke="#06B6D4" stroke-width="0.5"/>
<line x1="352" y1="1024" x2="352" y2="0" stroke="#06B6D4" stroke-width="0.5"/>
<line x1="416" y1="1024" x2="416" y2="0" stroke="#06B6D4" stroke-width="0.5"/>
<line x1="480" y1="1024" x2="480" y2="0" stroke="#06B6D4" stroke-width="0.5"/>
<line x1="544" y1="1024" x2="544" y2="0" stroke="#06B6D4" stroke-width="0.5"/>
<line x1="608" y1="1024" x2="608" y2="0" stroke="#06B6D4" stroke-width="0.5"/>
<line x1="672" y1="1024" x2="672" y2="0" stroke="#06B6D4" stroke-width="0.5"/>
<line x1="736" y1="1024" x2="736" y2="0" stroke="#06B6D4" stroke-width="0.5"/>
<line x1="800" y1="1024" x2="800" y2="0" stroke="#06B6D4" stroke-width="0.5"/>
<line x1="864" y1="1024" x2="864" y2="0" stroke="#06B6D4" stroke-width="0.5"/>
<line x1="928" y1="1024" x2="928" y2="0" stroke="#06B6D4" stroke-width="0.5"/>
<line x1="992" y1="1024" x2="992" y2="0" stroke="#06B6D4" stroke-width="0.5"/>
<line x1="1056" y1="1024" x2="1056" y2="0" stroke="#06B6D4" stroke-width="0.5"/>
<line x1="1120" y1="1024" x2="1120" y2="0" stroke="#06B6D4" stroke-width="0.5"/>
<line x1="1184" y1="1024" x2="1184" y2="0" stroke="#06B6D4" stroke-width="0.5"/>
<line x1="1248" y1="1024" x2="1248" y2="0" stroke="#06B6D4" stroke-width="0.5"/>
<line x1="1312" y1="1024" x2="1312" y2="0" stroke="#06B6D4" stroke-width="0.5"/>
<line x1="1376" y1="1024" x2="1376" y2="0" stroke="#06B6D4" stroke-width="0.5"/>
<line x1="1440" y1="1024" x2="1440" y2="0" stroke="#06B6D4" stroke-width="0.5"/>
</g>
</svg>
